<mxfile host="app.diagrams.net" modified="2023-04-04T17:35:45.822Z" agent="Mozilla/5.0 (Windows NT 10.0; Win64; x64) AppleWebKit/537.36 (KHTML, like Gecko) Chrome/111.0.0.0 Safari/537.36" etag="st_3hy2CIEM3QJoPF9PK" version="21.1.4" type="device">
  <diagram name="Page-1" id="M2eSPfG6FV-bBI3g2JpW">
    <mxGraphModel dx="838" dy="642" grid="1" gridSize="10" guides="1" tooltips="1" connect="1" arrows="1" fold="1" page="1" pageScale="1" pageWidth="850" pageHeight="1100" math="0" shadow="0">
      <root>
        <mxCell id="0" />
        <mxCell id="1" parent="0" />
        <mxCell id="7JjVqufRW6cXLJBbXpOK-23" style="edgeStyle=orthogonalEdgeStyle;rounded=0;orthogonalLoop=1;jettySize=auto;html=1;exitX=1;exitY=0.5;exitDx=0;exitDy=0;entryX=0;entryY=0;entryDx=0;entryDy=0;" edge="1" parent="1" source="7JjVqufRW6cXLJBbXpOK-1" target="7JjVqufRW6cXLJBbXpOK-17">
          <mxGeometry relative="1" as="geometry" />
        </mxCell>
        <mxCell id="7JjVqufRW6cXLJBbXpOK-38" style="edgeStyle=orthogonalEdgeStyle;rounded=0;orthogonalLoop=1;jettySize=auto;html=1;entryX=0.5;entryY=0;entryDx=0;entryDy=0;" edge="1" parent="1" source="7JjVqufRW6cXLJBbXpOK-1" target="7JjVqufRW6cXLJBbXpOK-3">
          <mxGeometry relative="1" as="geometry" />
        </mxCell>
        <mxCell id="7JjVqufRW6cXLJBbXpOK-1" value="Line" style="rounded=0;whiteSpace=wrap;html=1;" vertex="1" parent="1">
          <mxGeometry x="900" y="40" width="120" height="60" as="geometry" />
        </mxCell>
        <mxCell id="7JjVqufRW6cXLJBbXpOK-3" value="Vars" style="swimlane;fontStyle=0;childLayout=stackLayout;horizontal=1;startSize=30;horizontalStack=0;resizeParent=1;resizeParentMax=0;resizeLast=0;collapsible=1;marginBottom=0;whiteSpace=wrap;html=1;" vertex="1" parent="1">
          <mxGeometry x="890" y="150" width="140" height="120" as="geometry" />
        </mxCell>
        <mxCell id="7JjVqufRW6cXLJBbXpOK-4" value="streamout" style="text;strokeColor=none;fillColor=none;align=left;verticalAlign=middle;spacingLeft=4;spacingRight=4;overflow=hidden;points=[[0,0.5],[1,0.5]];portConstraint=eastwest;rotatable=0;whiteSpace=wrap;html=1;" vertex="1" parent="7JjVqufRW6cXLJBbXpOK-3">
          <mxGeometry y="30" width="140" height="30" as="geometry" />
        </mxCell>
        <mxCell id="7JjVqufRW6cXLJBbXpOK-5" value="streamin" style="text;strokeColor=none;fillColor=none;align=left;verticalAlign=middle;spacingLeft=4;spacingRight=4;overflow=hidden;points=[[0,0.5],[1,0.5]];portConstraint=eastwest;rotatable=0;whiteSpace=wrap;html=1;" vertex="1" parent="7JjVqufRW6cXLJBbXpOK-3">
          <mxGeometry y="60" width="140" height="30" as="geometry" />
        </mxCell>
        <mxCell id="7JjVqufRW6cXLJBbXpOK-6" value="line" style="text;strokeColor=none;fillColor=none;align=left;verticalAlign=middle;spacingLeft=4;spacingRight=4;overflow=hidden;points=[[0,0.5],[1,0.5]];portConstraint=eastwest;rotatable=0;whiteSpace=wrap;html=1;" vertex="1" parent="7JjVqufRW6cXLJBbXpOK-3">
          <mxGeometry y="90" width="140" height="30" as="geometry" />
        </mxCell>
        <mxCell id="7JjVqufRW6cXLJBbXpOK-39" style="edgeStyle=orthogonalEdgeStyle;rounded=0;orthogonalLoop=1;jettySize=auto;html=1;entryX=0.5;entryY=0;entryDx=0;entryDy=0;" edge="1" parent="1" source="7JjVqufRW6cXLJBbXpOK-8" target="7JjVqufRW6cXLJBbXpOK-31">
          <mxGeometry relative="1" as="geometry" />
        </mxCell>
        <mxCell id="7JjVqufRW6cXLJBbXpOK-8" value="LineFormat" style="rounded=0;whiteSpace=wrap;html=1;" vertex="1" parent="1">
          <mxGeometry x="900" y="400" width="120" height="60" as="geometry" />
        </mxCell>
        <mxCell id="7JjVqufRW6cXLJBbXpOK-10" value="&lt;font style=&quot;font-size: 8px;&quot;&gt;Write&lt;/font&gt;" style="triangle;whiteSpace=wrap;html=1;align=left;" vertex="1" parent="1">
          <mxGeometry x="1130" y="180" width="30" height="30" as="geometry" />
        </mxCell>
        <mxCell id="7JjVqufRW6cXLJBbXpOK-11" style="edgeStyle=orthogonalEdgeStyle;rounded=0;orthogonalLoop=1;jettySize=auto;html=1;entryX=0;entryY=0.5;entryDx=0;entryDy=0;" edge="1" parent="1" source="7JjVqufRW6cXLJBbXpOK-4" target="7JjVqufRW6cXLJBbXpOK-10">
          <mxGeometry relative="1" as="geometry" />
        </mxCell>
        <mxCell id="7JjVqufRW6cXLJBbXpOK-12" value="&lt;span style=&quot;font-size: 8px;&quot;&gt;Read&lt;/span&gt;" style="triangle;whiteSpace=wrap;html=1;align=left;" vertex="1" parent="1">
          <mxGeometry x="1130" y="210" width="30" height="30" as="geometry" />
        </mxCell>
        <mxCell id="7JjVqufRW6cXLJBbXpOK-13" style="edgeStyle=orthogonalEdgeStyle;rounded=0;orthogonalLoop=1;jettySize=auto;html=1;entryX=0;entryY=0.5;entryDx=0;entryDy=0;" edge="1" parent="1" source="7JjVqufRW6cXLJBbXpOK-5" target="7JjVqufRW6cXLJBbXpOK-12">
          <mxGeometry relative="1" as="geometry" />
        </mxCell>
        <mxCell id="7JjVqufRW6cXLJBbXpOK-17" value="Functions" style="swimlane;fontStyle=0;childLayout=stackLayout;horizontal=1;startSize=30;horizontalStack=0;resizeParent=1;resizeParentMax=0;resizeLast=0;collapsible=1;marginBottom=0;whiteSpace=wrap;html=1;" vertex="1" parent="1">
          <mxGeometry x="1190" y="40" width="140" height="120" as="geometry" />
        </mxCell>
        <mxCell id="7JjVqufRW6cXLJBbXpOK-18" value="Display" style="text;strokeColor=none;fillColor=none;align=left;verticalAlign=middle;spacingLeft=4;spacingRight=4;overflow=hidden;points=[[0,0.5],[1,0.5]];portConstraint=eastwest;rotatable=0;whiteSpace=wrap;html=1;" vertex="1" parent="7JjVqufRW6cXLJBbXpOK-17">
          <mxGeometry y="30" width="140" height="30" as="geometry" />
        </mxCell>
        <mxCell id="7JjVqufRW6cXLJBbXpOK-19" value="Request" style="text;strokeColor=none;fillColor=none;align=left;verticalAlign=middle;spacingLeft=4;spacingRight=4;overflow=hidden;points=[[0,0.5],[1,0.5]];portConstraint=eastwest;rotatable=0;whiteSpace=wrap;html=1;" vertex="1" parent="7JjVqufRW6cXLJBbXpOK-17">
          <mxGeometry y="60" width="140" height="30" as="geometry" />
        </mxCell>
        <mxCell id="7JjVqufRW6cXLJBbXpOK-20" value="Item 3" style="text;strokeColor=none;fillColor=none;align=left;verticalAlign=middle;spacingLeft=4;spacingRight=4;overflow=hidden;points=[[0,0.5],[1,0.5]];portConstraint=eastwest;rotatable=0;whiteSpace=wrap;html=1;" vertex="1" parent="7JjVqufRW6cXLJBbXpOK-17">
          <mxGeometry y="90" width="140" height="30" as="geometry" />
        </mxCell>
        <mxCell id="7JjVqufRW6cXLJBbXpOK-27" style="edgeStyle=orthogonalEdgeStyle;rounded=0;orthogonalLoop=1;jettySize=auto;html=1;exitX=0;exitY=0.5;exitDx=0;exitDy=0;entryX=0.5;entryY=0;entryDx=0;entryDy=0;dashed=1;" edge="1" parent="1" source="7JjVqufRW6cXLJBbXpOK-18" target="7JjVqufRW6cXLJBbXpOK-10">
          <mxGeometry relative="1" as="geometry" />
        </mxCell>
        <mxCell id="7JjVqufRW6cXLJBbXpOK-28" style="edgeStyle=orthogonalEdgeStyle;rounded=0;orthogonalLoop=1;jettySize=auto;html=1;exitX=0;exitY=0.5;exitDx=0;exitDy=0;entryX=1;entryY=0.5;entryDx=0;entryDy=0;dashed=1;" edge="1" parent="1" source="7JjVqufRW6cXLJBbXpOK-19" target="7JjVqufRW6cXLJBbXpOK-12">
          <mxGeometry relative="1" as="geometry">
            <Array as="points">
              <mxPoint x="1180" y="115" />
              <mxPoint x="1180" y="225" />
            </Array>
          </mxGeometry>
        </mxCell>
        <mxCell id="7JjVqufRW6cXLJBbXpOK-30" style="edgeStyle=orthogonalEdgeStyle;rounded=0;orthogonalLoop=1;jettySize=auto;html=1;entryX=0;entryY=0.5;entryDx=0;entryDy=0;dashed=1;dashPattern=1 4;" edge="1" parent="1" source="7JjVqufRW6cXLJBbXpOK-6" target="7JjVqufRW6cXLJBbXpOK-8">
          <mxGeometry relative="1" as="geometry" />
        </mxCell>
        <mxCell id="7JjVqufRW6cXLJBbXpOK-31" value="Vars" style="swimlane;fontStyle=0;childLayout=stackLayout;horizontal=1;startSize=30;horizontalStack=0;resizeParent=1;resizeParentMax=0;resizeLast=0;collapsible=1;marginBottom=0;whiteSpace=wrap;html=1;" vertex="1" parent="1">
          <mxGeometry x="890" y="490" width="140" height="150" as="geometry">
            <mxRectangle x="890" y="490" width="60" height="30" as="alternateBounds" />
          </mxGeometry>
        </mxCell>
        <mxCell id="7JjVqufRW6cXLJBbXpOK-32" value="mainchar" style="text;strokeColor=none;fillColor=none;align=left;verticalAlign=middle;spacingLeft=4;spacingRight=4;overflow=hidden;points=[[0,0.5],[1,0.5]];portConstraint=eastwest;rotatable=0;whiteSpace=wrap;html=1;" vertex="1" parent="7JjVqufRW6cXLJBbXpOK-31">
          <mxGeometry y="30" width="140" height="30" as="geometry" />
        </mxCell>
        <mxCell id="7JjVqufRW6cXLJBbXpOK-33" value="endchar" style="text;strokeColor=none;fillColor=none;align=left;verticalAlign=middle;spacingLeft=4;spacingRight=4;overflow=hidden;points=[[0,0.5],[1,0.5]];portConstraint=eastwest;rotatable=0;whiteSpace=wrap;html=1;" vertex="1" parent="7JjVqufRW6cXLJBbXpOK-31">
          <mxGeometry y="60" width="140" height="30" as="geometry" />
        </mxCell>
        <mxCell id="7JjVqufRW6cXLJBbXpOK-34" value="linelen" style="text;strokeColor=none;fillColor=none;align=left;verticalAlign=middle;spacingLeft=4;spacingRight=4;overflow=hidden;points=[[0,0.5],[1,0.5]];portConstraint=eastwest;rotatable=0;whiteSpace=wrap;html=1;" vertex="1" parent="7JjVqufRW6cXLJBbXpOK-31">
          <mxGeometry y="90" width="140" height="30" as="geometry" />
        </mxCell>
        <mxCell id="7JjVqufRW6cXLJBbXpOK-40" value="alignto" style="text;strokeColor=none;fillColor=none;align=left;verticalAlign=middle;spacingLeft=4;spacingRight=4;overflow=hidden;points=[[0,0.5],[1,0.5]];portConstraint=eastwest;rotatable=0;whiteSpace=wrap;html=1;" vertex="1" parent="7JjVqufRW6cXLJBbXpOK-31">
          <mxGeometry y="120" width="140" height="30" as="geometry" />
        </mxCell>
        <mxCell id="7JjVqufRW6cXLJBbXpOK-54" style="edgeStyle=orthogonalEdgeStyle;rounded=0;orthogonalLoop=1;jettySize=auto;html=1;exitX=0;exitY=0.5;exitDx=0;exitDy=0;entryX=0;entryY=0.5;entryDx=0;entryDy=0;" edge="1" parent="1" target="7JjVqufRW6cXLJBbXpOK-42">
          <mxGeometry relative="1" as="geometry">
            <mxPoint x="870" y="704.8571428571429" as="sourcePoint" />
          </mxGeometry>
        </mxCell>
        <mxCell id="7JjVqufRW6cXLJBbXpOK-42" value="LEFT" style="ellipse;whiteSpace=wrap;html=1;aspect=fixed;" vertex="1" parent="1">
          <mxGeometry x="890" y="680" width="50" height="50" as="geometry" />
        </mxCell>
        <mxCell id="7JjVqufRW6cXLJBbXpOK-53" style="edgeStyle=orthogonalEdgeStyle;rounded=0;orthogonalLoop=1;jettySize=auto;html=1;exitX=0;exitY=0.5;exitDx=0;exitDy=0;entryX=0;entryY=0.5;entryDx=0;entryDy=0;" edge="1" parent="1" target="7JjVqufRW6cXLJBbXpOK-43">
          <mxGeometry relative="1" as="geometry">
            <mxPoint x="870" y="764.8571428571429" as="sourcePoint" />
          </mxGeometry>
        </mxCell>
        <mxCell id="7JjVqufRW6cXLJBbXpOK-43" value="MIDDLE" style="ellipse;whiteSpace=wrap;html=1;aspect=fixed;" vertex="1" parent="1">
          <mxGeometry x="890" y="740" width="50" height="50" as="geometry" />
        </mxCell>
        <mxCell id="7JjVqufRW6cXLJBbXpOK-44" value="RIGHT" style="ellipse;whiteSpace=wrap;html=1;aspect=fixed;" vertex="1" parent="1">
          <mxGeometry x="890" y="800" width="50" height="50" as="geometry" />
        </mxCell>
        <mxCell id="7JjVqufRW6cXLJBbXpOK-52" style="edgeStyle=orthogonalEdgeStyle;rounded=0;orthogonalLoop=1;jettySize=auto;html=1;exitX=0;exitY=0.5;exitDx=0;exitDy=0;entryX=0;entryY=0.5;entryDx=0;entryDy=0;" edge="1" parent="1" source="7JjVqufRW6cXLJBbXpOK-40" target="7JjVqufRW6cXLJBbXpOK-44">
          <mxGeometry relative="1" as="geometry" />
        </mxCell>
      </root>
    </mxGraphModel>
  </diagram>
</mxfile>
